<?xml version="1.0" encoding="UTF-8" standalone="no"?>
<!-- Created with Inkscape (http://www.inkscape.org/) -->

<svg
   xmlns:dc="http://purl.org/dc/elements/1.1/"
   xmlns:cc="http://creativecommons.org/ns#"
   xmlns:rdf="http://www.w3.org/1999/02/22-rdf-syntax-ns#"
   xmlns:svg="http://www.w3.org/2000/svg"
   xmlns="http://www.w3.org/2000/svg"
   xmlns:sodipodi="http://sodipodi.sourceforge.net/DTD/sodipodi-0.dtd"
   xmlns:inkscape="http://www.inkscape.org/namespaces/inkscape"
   width="210mm"
   height="297mm"
   viewBox="0 0 210 297"
   version="1.1"
   id="svg5258"
   inkscape:version="0.92.4 (5da689c313, 2019-01-14)"
   sodipodi:docname="ticket.svg">
  <defs
     id="defs5252" />
  <sodipodi:namedview
     id="base"
     pagecolor="#ffffff"
     bordercolor="#666666"
     borderopacity="1.0"
     inkscape:pageopacity="0.0"
     inkscape:pageshadow="2"
     inkscape:zoom="0.49497475"
     inkscape:cx="336.87843"
     inkscape:cy="546.33283"
     inkscape:document-units="mm"
     inkscape:current-layer="layer1"
     showgrid="false"
     inkscape:window-width="1920"
     inkscape:window-height="1001"
     inkscape:window-x="-9"
     inkscape:window-y="-9"
     inkscape:window-maximized="1" />
  <metadata
     id="metadata5255">
    <rdf:RDF>
      <cc:Work
         rdf:about="">
        <dc:format>image/svg+xml</dc:format>
        <dc:type
           rdf:resource="http://purl.org/dc/dcmitype/StillImage" />
        <dc:title></dc:title>
      </cc:Work>
    </rdf:RDF>
  </metadata>
  <g
     inkscape:label="Layer 1"
     inkscape:groupmode="layer"
     id="layer1">
    <g
       style="display:inline;fill:#f9ba00;fill-opacity:1"
       transform="matrix(0.04452095,0,0,0.04452095,108.66798,110.93375)"
       id="g15131-5-2-2-2"
       inkscape:export-xdpi="120"
       inkscape:export-ydpi="120">
      <path
         style="fill:#f9ba00;fill-opacity:1"
         inkscape:connector-curvature="0"
         d="m 128.00391,280.01172 c 8.83984,0 16,7.16406 16,16 0,4.41797 3.58203,8 8,8 4.41796,0 8,-3.58203 8,-8 -0.0547,-14.54688 -9.91407,-27.22656 -24,-30.86328 v -9.13672 c 0,-4.41797 -3.58204,-8 -8,-8 -4.41797,0 -8,3.58203 -8,8 v 9.13672 c -15.58594,4.01172 -25.750004,18.99219 -23.718754,34.95703 2.03125,15.96484 15.625004,27.92578 31.718754,27.90625 8.83984,0 16,7.16406 16,16 0,8.83594 -7.16016,16 -16,16 -8.83594,0 -16,-7.16406 -16,-16 0,-4.41797 -3.58203,-8 -8,-8 -4.417972,0 -8.000004,3.58203 -8.000004,8 0.05469,14.54687 9.917974,27.22656 24.000004,30.86328 v 9.13672 c 0,4.41797 3.58203,8 8,8 4.41796,0 8,-3.58203 8,-8 v -9.11328 c 15.63671,-3.97266 25.85156,-18.98047 23.8164,-34.98047 -2.03515,-16.00391 -15.68359,-27.97656 -31.8164,-27.90625 -8.83594,0 -16,-7.16406 -16,-16 0,-8.83594 7.16406,-16 16,-16 z m 0,0"
         id="path15117-02-8-5-8" />
      <path
         style="fill:#f9ba00;fill-opacity:1"
         inkscape:connector-curvature="0"
         d="m 152.00391,200.01172 h -48 c -4.417972,0 -8.000004,3.58203 -8.000004,8 0,4.41797 3.582032,8 8.000004,8 h 48 c 4.41796,0 8,-3.58203 8,-8 0,-4.41797 -3.58204,-8 -8,-8 z m 0,0"
         id="path15119-3-1-7-9" />
      <path
         style="fill:#f9ba00;fill-opacity:1"
         inkscape:connector-curvature="0"
         d="m 152.00391,424.01172 h -48 c -4.417972,0 -8.000004,3.58203 -8.000004,8 0,4.41797 3.582032,8 8.000004,8 h 48 c 4.41796,0 8,-3.58203 8,-8 0,-4.41797 -3.58204,-8 -8,-8 z m 0,0"
         id="path15121-7-4-9-1" />
      <path
         style="fill:#f9ba00;fill-opacity:1"
         inkscape:connector-curvature="0"
         d="M 406.34766,308.01172 288.90234,104.60938 c 7.22657,-7.167974 13.6211,-15.132818 19.05469,-23.742192 13.33594,-21.601563 15.71875,-42.105469 6.70313,-57.71875 -17.94141,-31.082032 -74.60547,-30.832032 -129,0.566406 -7.22266,4.230468 -14.16797,8.914062 -20.79688,14.023437 l -6.45703,-7.328125 c -7.69922,-8.71875 -18.76953,-13.71875 -30.40234,-13.726562 -11.62891,0.0078 -22.69922,5.007812 -30.398441,13.726562 L 10.148438,129.51563 C 3.609375,136.92188 0,146.46484 0.00390625,156.34766 v 251.66406 c 0.04687495,39.74609 32.25390575,71.95703 71.99999975,72 H 184.00391 c 39.74609,-0.043 71.95703,-32.25391 72,-72 V 156.34766 c -0.0156,-7.70703 -2.23829,-15.25 -6.39844,-21.73828 h 0.0625 c 9.5664,-5.53125 18.64453,-11.86329 27.13672,-18.92579 l 115.6875,200.32813 c 15.47656,26.78515 6.30468,61.04297 -20.48828,76.51172 l -96.99219,56 c -4.26563,2.4375 -8.83985,4.30078 -13.59766,5.53515 -4.26953,1.13672 -6.8125,5.51953 -5.67578,9.78907 1.13281,4.26953 5.51563,6.8125 9.78906,5.67578 6.10157,-1.60547 11.96875,-4.00781 17.44532,-7.14453 l 96.99218,-56 c 34.45703,-19.8711 46.27344,-63.91797 26.38282,-98.36719 z m -166.34375,100 c -0.0352,30.91406 -25.08594,55.96484 -56,56 H 72.003906 c -30.910156,-0.0352 -55.964844,-25.08594 -56,-56 V 156.34766 c 0,-5.98438 2.183594,-11.76172 6.144532,-16.25 L 109.60547,41.003906 c 4.65625,-5.285156 11.35547,-8.316406 18.39844,-8.320312 7.04296,0.0039 13.74609,3.035156 18.40234,8.320312 l 78.02344,88.421874 c -17.83594,8.41406 -37.32813,12.73828 -57.04688,12.65625 0.36328,-2.0039 0.57031,-4.03515 0.6211,-6.07031 -0.0234,-22.08203 -17.91797,-39.972658 -40,-40.000001 -0.87891,0.02734 -1.7461,0.203125 -2.56641,0.519531 -4.03125,-0.496094 -7.78125,2.144531 -8.67969,6.10547 -2.84765,10.93359 -1.44922,22.53906 3.91016,32.48437 5.3164,8.80469 13.58594,15.4336 23.33594,18.69922 -7.01172,6.39844 -17.14844,8.03516 -25.82032,4.17578 -8.67578,-3.86328 -14.23828,-12.49218 -14.17968,-21.98437 0,-4.41797 -3.58204,-8 -8.000004,-8 -4.417968,0 -8,3.58203 -8,8 -0.01953,17.73437 11.652344,33.35937 28.667964,38.36719 17.01172,5.00781 35.28907,-1.80078 44.87891,-16.71875 3.14844,0.33203 6.3125,0.50781 9.48047,0.51953 22.33203,-0.67578 44.25391,-6.19531 64.24609,-16.17578 3.05078,4.16406 4.70313,9.18359 4.72657,14.34375 z m -88,-272 c -0.0312,1.17187 -0.14844,2.33984 -0.35157,3.49609 -7.05859,-1.83593 -13.17187,-6.2539 -17.125,-12.38672 -2.46875,-4.5039 -3.52734,-9.64453 -3.04297,-14.75781 11.75,1.72266 20.47266,11.77344 20.51954,23.64844 z m 89.65625,-15.32813 c -0.79688,0.46485 -1.59766,0.86329 -2.39844,1.3125 L 175.5,49.730469 c 5.80469,-4.402344 11.87109,-8.449219 18.16016,-12.121094 45.0664,-26.03125 94.13671,-28.972656 107.13671,-6.398437 5.94532,10.28125 3.64844,24.960937 -6.45703,41.320312 -3.99609,6.347656 -8.60156,12.289062 -13.75781,17.734375 L 280.5,90.121094 C 275.56641,81.5625 267.66797,75.101562 258.30078,71.953125 L 226.97266,61.363281 c -4.14063,-1.261719 -8.53516,1 -9.91407,5.101563 -1.38281,4.105468 0.75391,8.5625 4.82032,10.058594 l 31.32812,10.535156 c 5.66797,1.910156 10.44531,5.820312 13.4375,11 l 2.03906,3.527346 c -8.39453,7.19922 -17.4414,13.59765 -27.02343,19.12109 z m 0,0"
         id="path15123-3-1-7-9" />
      <path
         style="fill:#f9ba00;fill-opacity:1"
         inkscape:connector-curvature="0"
         d="m 273.07812,322.46875 c 2.20704,3.82422 7.10157,5.13672 10.92579,2.92578 l 55.42578,-32 c 2.49609,-1.41797 4.03906,-4.06641 4.04687,-6.9375 0.004,-2.87109 -1.52734,-5.52344 -4.01562,-6.95312 -2.49219,-1.42969 -5.55469,-1.41797 -8.03125,0.0351 l -55.42578,32 c -3.82422,2.21094 -5.13672,7.10156 -2.92579,10.92969 z m 0,0"
         id="path15125-9-4-1-9" />
      <path
         style="fill:#f9ba00;fill-opacity:1"
         inkscape:connector-curvature="0"
         d="m 283.20703,372.01172 c 2.20313,3.82812 7.09766,5.14453 10.92578,2.93359 l 69.28125,-40 c 3.82813,-2.20703 5.14063,-7.10156 2.92969,-10.92969 -2.20703,-3.82812 -7.10156,-5.14062 -10.92969,-2.93359 l -69.28125,40 c -3.82422,2.21094 -5.13672,7.10156 -2.92578,10.92969 z m 0,0"
         id="path15127-9-8-8-9" />
      <path
         style="fill:#f9ba00;fill-opacity:1"
         inkscape:connector-curvature="0"
         d="m 287.72656,275.82812 c 1.40235,0 2.78125,-0.37109 4,-1.07421 l 27.71094,-16 c 2.49609,-1.41797 4.03906,-4.06641 4.04687,-6.9375 0.004,-2.86719 -1.52734,-5.52344 -4.01562,-6.95313 -2.48828,-1.42969 -5.55469,-1.41797 -8.03125,0.0352 l -27.71094,16 c -3.13672,1.8125 -4.66406,5.5 -3.72656,9 0.9375,3.49609 4.10547,5.92968 7.72656,5.92968 z m 0,0"
         id="path15129-8-2-5-8" />
    </g>
  </g>
</svg>
